<svg id="wave" style="transform:rotate(180deg); transition: 0.3s" viewBox="0 0 1440 130" version="1.1"
  xmlns="http://www.w3.org/2000/svg">
  <defs>
    <linearGradient id="sw-gradient-0" x1="0" x2="0" y1="1" y2="0">
      <stop stop-color="rgba(152, 193, 217, 1)" offset="0%"></stop>
      <stop stop-color="rgba(224, 251, 252, 1)" offset="100%"></stop>
    </linearGradient>
  </defs>
  <path style="transform:translate(0, 0px); opacity:1" fill="url(#sw-gradient-0)" d="M0,0L40,2.2C80,4,160,9,240,23.8C320,39,400,65,480,65C560,65,640,39,720,41.2C800,43,880,74,960,73.7C1040,74,1120,43,1200,26C1280,9,1360,4,1440,13C1520,22,1600,43,1680,47.7C1760,52,1840,39,1920,32.5C2000,26,2080,26,2160,28.2C2240,30,2320,35,2400,34.7C2480,35,2560,30,2640,26C2720,22,2800,17,2880,19.5C2960,22,3040,30,3120,32.5C3200,35,3280,30,3360,36.8C3440,43,3520,61,3600,65C3680,69,3760,61,3840,67.2C3920,74,4000,95,4080,101.8C4160,108,4240,100,4320,84.5C4400,69,4480,48,4560,45.5C4640,43,4720,61,4800,56.3C4880,52,4960,26,5040,15.2C5120,4,5200,9,5280,26C5360,43,5440,74,5520,86.7C5600,100,5680,95,5720,93.2L5760,91L5760,130L5720,130C5680,130,5600,130,5520,130C5440,130,5360,130,5280,130C5200,130,5120,130,5040,130C4960,130,4880,130,4800,130C4720,130,4640,130,4560,130C4480,130,4400,130,4320,130C4240,130,4160,130,4080,130C4000,130,3920,130,3840,130C3760,130,3680,130,3600,130C3520,130,3440,130,3360,130C3280,130,3200,130,3120,130C3040,130,2960,130,2880,130C2800,130,2720,130,2640,130C2560,130,2480,130,2400,130C2320,130,2240,130,2160,130C2080,130,2000,130,1920,130C1840,130,1760,130,1680,130C1600,130,1520,130,1440,130C1360,130,1280,130,1200,130C1120,130,1040,130,960,130C880,130,800,130,720,130C640,130,560,130,480,130C400,130,320,130,240,130C160,130,80,130,40,130L0,130Z"></path>
</svg>